<svg width="25" height="25" viewBox="0 0 25 25" xmlns="http://www.w3.org/2000/svg">
    <path
        d="M10.9383 19.4139L4.33829 12.8139C4.23829 12.7139 4.16729 12.6056 4.12529 12.4889C4.08396 12.3722 4.06329 12.2472 4.06329 12.1139C4.06329 11.9806 4.08396 11.8556 4.12529 11.7389C4.16729 11.6222 4.23829 11.5139 4.33829 11.4139L10.9383 4.81391C11.1216 4.63058 11.3506 4.53458 11.6253 4.52591C11.9006 4.51791 12.1383 4.61391 12.3383 4.81391C12.5383 4.99725 12.6426 5.22625 12.6513 5.50091C12.6593 5.77625 12.5633 6.01391 12.3633 6.21391L7.46329 11.1139H18.6383C18.9216 11.1139 19.1593 11.2096 19.3513 11.4009C19.5426 11.5929 19.6383 11.8306 19.6383 12.1139C19.6383 12.3972 19.5426 12.6346 19.3513 12.8259C19.1593 13.0179 18.9216 13.1139 18.6383 13.1139H7.46329L12.3633 18.0139C12.5466 18.1972 12.6426 18.4306 12.6513 18.7139C12.6593 18.9972 12.5633 19.2306 12.3633 19.4139C12.18 19.6139 11.9466 19.7139 11.6633 19.7139C11.38 19.7139 11.1383 19.6139 10.9383 19.4139Z"
        fill="#1C1B1F" />
</svg>
