<svg stroke-miterlimit="10"
    viewBox="0 0 200 200" xmlns="http://www.w3.org/2000/svg">
<path
    d="M107.906-6.75C107.044-6.79574 106.136-6.49601 105.344-5.78125C104.078-4.63956 104.25-2.65625 104.25-2.65625C104.25-2.65625 102.339-3.20251 100.969-2.1875C100.156-1.58534 99.7156-0.808176 99.5625 0L111.031 0C111.089-0.401262 111.258-0.714901 111.281-1.09375C111.369-2.50819 111.309-4.44063 110.156-5.6875C109.573-6.31839 108.769-6.70426 107.906-6.75ZM111.031 0C110.797 1.63541 110.441 3.46599 110.062 4.46875C108.744 4.68378 106.314 4.79518 104.406 4.53125C103.002 4.33723 101.088 3.93942 100.094 2.5625C99.5645 1.82976 99.3926 0.896936 99.5625 0L0 0L0 12.4688C0.717002 13.2059 1.31795 14.0474 1.6875 14.8438C2.49886 16.5912 3.06881 18.9585 3.25 20.2812C2.55326 20.8195 1.21348 21.4877 0 22.125L0 59.375C1.54678 60.0237 2.09375 61.9062 2.09375 61.9062C2.09375 61.9062 3.67533 60.7113 5.3125 61.1875C7.36176 61.784 8.24145 63.689 7.78125 65.3438C7.32746 66.9809 5.68662 68.0484 4.4375 68.7188C3.02684 69.4741 1.33767 69.9451 0 70.2812L0 120.781C0.00205861 120.957 0.0260597 121.141 0 121.312L0 125.125C1.12967 124.862 2.66407 125.464 3.84375 126.781C5.33981 128.453 5.6713 130.598 4.59375 131.562C3.52886 132.515 1.49197 131.937 0 130.312L0 159.125C1.04616 158.769 1.94281 158.347 3 158.188C4.40145 157.978 6.34377 157.867 7.6875 158.906C9.04566 159.958 9.4735 162.016 8.1875 163.719C7.15966 165.08 5.1875 165.062 5.1875 165.062C5.1875 165.062 5.89154 166.923 5 168.375C3.88397 170.194 1.82056 170.536 0.34375 169.656C0.186145 169.562 0.13807 169.365 0 169.25L0 200L33.7188 200C33.4952 199.223 33.404 198.323 33.625 197.344C34.1189 195.156 35.6514 193.651 37.0625 193.969C38.4736 194.288 39.2111 196.313 38.7188 198.5C38.5778 199.125 38.222 199.512 37.9375 200L153.031 200C152.023 199.348 151.406 197.743 152.125 195.062C152.851 192.35 152.199 190.269 154.094 189.031C156.051 187.894 157.592 189.432 160.344 190C164.378 190.832 165.173 193.228 163.875 194.625C162.578 196.021 160.177 195.077 158.5 196.156C158.495 196.159 158.474 196.153 158.469 196.156C156.929 197.065 156.53 199.175 155.156 200L200 200L200 190.969C199.324 191.033 198.813 190.938 198.812 190.938C198.813 190.938 199.174 192.891 198.031 194.156C196.599 195.74 194.508 195.7 193.219 194.562C191.946 193.439 191.712 191.509 191.656 190.094C191.579 188.169 191.94 185.76 192.281 184.469C193.571 184.121 195.98 183.745 197.906 183.812C198.538 183.835 199.281 183.922 200 184.094L200 0L187.438 0C187.01 0.649424 186.426 1.33148 185.469 2C183.168 3.60895 182.341 5.61442 180.094 5.34375C177.866 4.95491 177.647 2.79808 175.906 0.59375C175.737 0.379529 175.702 0.206033 175.562 0L111.031 0ZM174.469 1.28125C174.817 1.34992 175.13 1.47883 175.375 1.71875C176.355 2.67812 175.928 4.69928 174.438 6.21875C172.949 7.73806 170.949 8.17845 169.969 7.21875C168.989 6.25922 169.418 4.26947 170.906 2.75C172.023 1.6104 173.423 1.07523 174.469 1.28125ZM186.656 3.0625C187.717 3.16687 188.915 4.08692 189.656 5.5C190.642 7.38395 190.433 9.42608 189.219 10.0625C188.004 10.6986 186.236 9.69661 185.25 7.8125C184.262 5.92856 184.441 3.88643 185.656 3.25C185.96 3.09093 186.303 3.02771 186.656 3.0625ZM176.375 6.5C176.737 6.40436 177.094 6.41668 177.438 6.53125C178.809 6.98953 179.335 9.09119 178.625 11.2188C177.913 13.3458 176.247 14.677 174.875 14.2188C173.504 13.7605 172.946 11.69 173.656 9.5625C174.19 7.96698 175.288 6.78692 176.375 6.5ZM182.281 7.25C183.726 7.20655 184.964 8.97662 185.031 11.2188C185.098 13.4608 183.976 15.3317 182.531 15.375C181.085 15.4185 179.849 13.6171 179.781 11.375C179.714 9.13311 180.837 7.29314 182.281 7.25ZM40.375 17.7812C40.8721 19.02 41.56 21.3614 41.7188 23.2812C41.8358 24.6935 41.8148 26.6361 40.6875 27.9062C39.5474 29.1917 37.4881 29.5215 35.875 28.125C34.5858 27.0095 34.7188 25.0312 34.7188 25.0312C34.7188 25.0312 32.8278 25.6117 31.4375 24.625C29.6977 23.3899 29.4906 21.3201 30.4688 19.9062C31.4342 18.5095 33.3189 18.0352 34.7188 17.8125C36.6204 17.5096 39.0538 17.5936 40.375 17.7812ZM80.4688 19.375C81.0492 20.5768 81.8972 22.8767 82.1875 24.7812C82.4007 26.1823 82.5063 28.124 81.4688 29.4688C80.4202 30.8297 78.3936 31.2821 76.6875 30C75.3245 28.9755 75.3125 26.9688 75.3125 26.9688C75.3125 26.9688 73.4544 27.7012 72 26.8125C70.1784 25.6998 69.8401 23.6336 70.7188 22.1562C71.5847 20.6959 73.4319 20.0998 74.8125 19.7812C76.6902 19.3486 79.138 19.2787 80.4688 19.375ZM135.312 24.375C135.668 24.3763 135.995 24.4671 136.281 24.6562C137.425 25.4123 137.392 27.4758 136.219 29.25C135.046 31.0241 133.175 31.8502 132.031 31.0938C130.887 30.3376 130.921 28.2741 132.094 26.5C132.974 25.1693 134.247 24.3711 135.312 24.375ZM142.188 26.9688C143.061 27.0025 143.788 27.3464 144.156 27.9688C144.892 29.2134 143.931 31.1398 142 32.2812C140.069 33.4232 137.892 33.3386 137.156 32.0938C136.42 30.8493 137.382 28.9227 139.312 27.7812C140.278 27.2104 141.314 26.935 142.188 26.9688ZM128.562 31.0625C129.276 31.1576 130.107 31.3895 131.031 31.8438C133.551 33.0825 135.715 32.8396 136.562 34.9375C137.299 37.0768 135.495 38.318 134.406 40.9062C132.807 44.7034 130.307 45.012 129.188 43.4688C128.068 41.9255 129.485 39.7289 128.75 37.875C128.747 37.869 128.721 37.8807 128.719 37.875C128.717 37.8692 128.721 37.8497 128.719 37.8438C128.057 35.9623 125.573 35.2428 125.406 33.3438C125.281 31.9195 126.421 30.7773 128.562 31.0625ZM142.406 33.375C144.613 32.9702 146.613 33.7966 146.875 35.2188C147.136 36.6412 145.548 38.1264 143.344 38.5312C141.137 38.9362 139.135 38.1097 138.875 36.6875C138.613 35.2652 140.2 33.7801 142.406 33.375ZM137.219 39.4375C138.01 39.1913 139.038 39.184 140.062 39.4688C142.111 40.0385 143.461 41.5851 143.094 42.9062C142.726 44.2273 140.768 44.8195 138.719 44.25C136.669 43.6804 135.32 42.1651 135.688 40.8438C135.871 40.1833 136.427 39.6837 137.219 39.4375ZM170.938 50.3125C172.198 50.6541 173.188 52.3255 172.688 55.375C172.232 58.1459 173.074 60.145 171.312 61.5625C169.477 62.887 167.792 61.5121 165 61.2188C160.902 60.7874 159.878 58.4872 161.031 56.9688C162.184 55.4503 164.688 56.1458 166.25 54.9062C166.255 54.903 166.275 54.9095 166.281 54.9062C167.89 53.7279 167.855 51.1164 169.625 50.4062C170.067 50.2288 170.517 50.1986 170.938 50.3125ZM175.281 54.75C176.078 54.5193 177.075 54.5078 178.094 54.8125C180.132 55.4219 181.487 56.9993 181.094 58.3125C180.703 59.6274 178.725 60.203 176.688 59.5938C174.65 58.9845 173.326 57.4086 173.719 56.0938C173.915 55.4371 174.485 54.9807 175.281 54.75ZM99.6562 56.0312C100.773 56.1561 102.02 57.1254 102.781 58.625C103.796 60.6262 103.571 62.7833 102.281 63.4375C100.992 64.0917 99.1399 62.9996 98.125 61C97.1102 58.9988 97.3355 56.8417 98.625 56.1875C98.9474 56.024 99.2839 55.9896 99.6562 56.0312ZM107.031 57.625C108.402 57.6025 109.527 59.3112 109.562 61.4375C109.599 63.5653 108.527 65.3197 107.156 65.3438C105.785 65.3663 104.63 63.6575 104.594 61.5312C104.558 59.4034 105.661 57.6474 107.031 57.625ZM51.1562 57.8125C52.8495 57.519 54.6728 58.5885 55.0625 60.6875C55.3736 62.3631 54.0312 63.8125 54.0312 63.8125C54.0312 63.8125 55.874 64.5487 56.3438 66.1875C56.9323 68.2383 55.8015 69.9749 54.1562 70.4688C52.5288 70.9578 50.7642 70.1366 49.5312 69.4375C47.8555 68.4866 46.0077 66.9092 45.0938 65.9375C45.4785 64.6595 46.4241 62.4111 47.5 60.8125C48.2905 59.6355 49.4823 58.1011 51.1562 57.8125ZM94.5625 60.3125C95.4236 60.4658 96.3662 60.9547 97.1875 61.7188C98.8304 63.2453 99.3595 65.3464 98.375 66.4062C97.3906 67.4645 95.2685 67.089 93.625 65.5625C91.9814 64.0344 91.4233 61.9349 92.4062 60.875C92.8985 60.3458 93.7014 60.1592 94.5625 60.3125ZM176.344 60.75C177.206 60.8985 178.143 61.3657 178.969 62.125C180.621 63.6419 181.167 65.7478 180.188 66.8125C179.21 67.8772 177.089 67.4873 175.438 65.9688C173.786 64.4519 173.241 62.3773 174.219 61.3125C174.708 60.7801 175.482 60.6015 176.344 60.75ZM165.438 62.4062C166.809 62.3757 167.952 64.0613 168 66.1875C168.048 68.3137 166.965 70.0634 165.594 70.0938C164.223 70.1243 163.079 68.4387 163.031 66.3125C162.983 64.1862 164.066 62.4366 165.438 62.4062ZM171.375 64.0938C172.492 64.2125 173.731 65.1914 174.5 66.6875C175.526 68.6806 175.317 70.8377 174.031 71.5C172.745 72.1606 170.871 71.0884 169.844 69.0938C168.82 67.099 169.027 64.9436 170.312 64.2812C170.633 64.1161 171.003 64.0542 171.375 64.0938ZM102.625 65.625C104.009 65.4725 105.5 66.2979 107.594 66.5312C111.689 66.985 112.692 69.3004 111.531 70.8125C110.369 72.3246 107.882 71.5811 106.312 72.8125C106.307 72.8157 106.286 72.8406 106.281 72.8438C104.665 74.0126 104.649 76.6134 102.875 77.3125C101.102 78.0132 99.1828 76.4053 99.875 72.3438C100.347 69.576 99.4794 67.5658 101.25 66.1562C101.71 65.8279 102.164 65.6758 102.625 65.625ZM93.0625 68C93.8601 67.7737 94.8575 67.7834 95.875 68.0938C97.9093 68.7142 99.2441 70.282 98.8438 71.5938C98.4433 72.9053 96.472 73.466 94.4375 72.8438C92.4026 72.2231 91.0679 70.6537 91.4688 69.3438C91.6692 68.6879 92.2649 68.2263 93.0625 68ZM145.625 91.5938C146.609 92.4949 148.244 94.3372 149.219 96C149.936 97.2219 150.778 98.96 150.312 100.594C149.84 102.246 148.121 103.435 146.062 102.875C144.415 102.428 143.656 100.594 143.656 100.594C143.656 100.594 142.211 101.943 140.531 101.656C138.428 101.298 137.357 99.5106 137.625 97.8125C137.889 96.1352 139.367 94.9003 140.531 94.0938C142.113 92.9953 144.353 91.9978 145.625 91.5938ZM22.75 95.4688C23.2084 95.4046 23.7016 95.4302 24.2188 95.5625C25.8703 95.9842 26.625 97.8125 26.625 97.8125C26.625 97.8125 28.0663 96.4246 29.75 96.6875C31.8602 97.0146 32.961 98.7982 32.7188 100.5C32.4782 102.18 30.995 103.426 29.8438 104.25C28.2755 105.371 26.0464 106.391 24.7812 106.812C23.7822 105.926 22.124 104.116 21.125 102.469C20.389 101.259 19.5278 99.5154 19.9688 97.875C20.3031 96.6303 21.3748 95.6611 22.75 95.4688ZM71.9375 99.75C72.7623 99.8442 73.5613 100.088 74.2188 100.625C75.5497 101.712 75.9543 103.77 74.625 105.438C73.5619 106.771 71.5625 106.719 71.5625 106.719C71.5625 106.719 72.2425 108.6 71.3125 110.031C70.1484 111.818 68.0762 112.077 66.625 111.156C65.1899 110.249 64.6556 108.39 64.375 107C63.9966 105.111 63.9919 102.672 64.125 101.344C65.3437 100.797 67.6495 100.048 69.5625 99.8125C70.2656 99.726 71.1127 99.6558 71.9375 99.75ZM192.188 109.656C193.604 109.6 195.529 109.697 196.75 110.875C197.987 112.068 198.214 114.134 196.75 115.688C195.581 116.927 193.594 116.719 193.594 116.719C193.594 116.719 194.107 118.653 193.062 120C191.755 121.687 189.683 121.785 188.312 120.75C186.959 119.727 186.569 117.814 186.406 116.406C186.183 114.493 186.383 112.064 186.625 110.75C187.884 110.306 190.261 109.735 192.188 109.656ZM107.5 110.969C107.861 110.869 108.218 110.858 108.562 110.969C109.939 111.409 110.497 113.489 109.812 115.625C109.127 117.761 107.44 119.131 106.062 118.688C104.686 118.245 104.127 116.167 104.812 114.031C105.326 112.43 106.417 111.268 107.5 110.969ZM100.469 113.719C101.826 113.525 103.168 115.082 103.469 117.188C103.77 119.293 102.92 121.15 101.562 121.344C100.206 121.538 98.8636 119.981 98.5625 117.875C98.2613 115.768 99.1111 113.913 100.469 113.719ZM114.406 114.219C114.78 114.25 115.121 114.371 115.406 114.594C116.546 115.484 116.349 117.639 114.969 119.406C113.588 121.175 111.545 121.89 110.406 121C109.266 120.11 109.463 117.956 110.844 116.188C111.879 114.862 113.286 114.126 114.406 114.219ZM4.3125 114.375C6.43873 114.45 8.14186 115.631 8.09375 117C8.04405 118.371 6.28248 119.421 4.15625 119.344C2.03162 119.269 0.326896 118.089 0.375 116.719C0.424709 115.348 2.18788 114.3 4.3125 114.375ZM4.125 120.562C4.9965 120.489 6.00984 120.693 7 121.219C8.98192 122.271 10.0533 124.159 9.375 125.438C8.69672 126.715 6.54281 126.895 4.5625 125.844C2.58058 124.792 1.50922 122.902 2.1875 121.625C2.52664 120.987 3.2535 120.636 4.125 120.562ZM106.062 120.906C106.526 120.883 106.993 120.968 107.5 121.219C109.472 122.331 108.971 124.436 109.875 127.094C111.202 130.996 109.549 132.91 107.688 132.5C105.826 132.089 105.406 129.523 103.625 128.625C103.62 128.624 103.599 128.597 103.594 128.594C101.849 127.626 99.4799 128.715 98.0938 127.406C96.7073 126.098 97.3719 123.691 101.344 122.594C103.374 122.032 104.672 120.975 106.062 120.906ZM115.875 121.75C116.698 121.847 117.386 122.196 117.688 122.812C118.29 124.044 117.224 125.815 115.312 126.75C113.402 127.685 111.353 127.452 110.75 126.219C110.147 124.989 111.214 123.215 113.125 122.281C114.08 121.814 115.052 121.653 115.875 121.75ZM44.9062 136.219C46.7759 135.841 48.1944 138.024 50.1875 138.125C50.1939 138.125 50.2123 138.123 50.2188 138.125C52.2055 138.304 53.9212 136.332 55.7188 136.969C57.5162 137.605 57.9081 140.11 54.7188 142.719C52.546 144.497 51.886 146.569 49.625 146.469C47.3737 146.251 46.9954 144.098 45.0938 142.031C42.3037 139 43.0381 136.596 44.9062 136.219ZM166.062 136.594C167.966 136.711 168.79 139.202 170.688 139.812C170.695 139.815 170.714 139.81 170.719 139.812C172.592 140.497 174.739 139.048 176.312 140.125C177.885 141.203 177.627 143.706 173.875 145.406C171.315 146.564 170.128 148.398 167.969 147.719C165.85 146.927 166.057 144.767 164.75 142.281C162.835 138.633 164.159 136.477 166.062 136.594ZM162.062 142.5C162.891 142.468 163.607 142.72 164 143.281C164.787 144.405 164.024 146.311 162.281 147.531C160.54 148.751 158.475 148.841 157.688 147.719C156.901 146.595 157.665 144.689 159.406 143.469C160.278 142.858 161.234 142.532 162.062 142.5ZM43.6875 142.812C44.0404 142.855 44.3624 142.998 44.625 143.219C45.6737 144.101 45.4303 146.123 44.0625 147.75C42.6931 149.379 40.7362 149.976 39.6875 149.094C38.6372 148.212 38.8806 146.19 40.25 144.562C41.2758 143.342 42.6287 142.686 43.6875 142.812ZM56 143.688C57.0655 143.712 58.3109 144.554 59.1562 145.906C60.282 147.71 60.2563 149.742 59.0938 150.469C57.9312 151.195 56.0648 150.335 54.9375 148.531C53.8119 146.727 53.8375 144.664 55 143.938C55.2906 143.756 55.6448 143.679 56 143.688ZM173.844 146.656C175.154 146.254 176.72 147.592 177.344 149.625C177.968 151.658 177.406 153.629 176.094 154.031C174.784 154.434 173.219 153.127 172.594 151.094C171.97 149.061 172.533 147.059 173.844 146.656ZM47.0625 147.844C48.4655 148.197 49.1421 150.231 48.5938 152.406C48.0453 154.581 46.4655 156.072 45.0625 155.719C43.661 155.366 42.9844 153.301 43.5312 151.125C44.0797 148.951 45.661 147.49 47.0625 147.844ZM164.094 148.156C164.467 148.129 164.841 148.2 165.156 148.375C166.421 149.077 166.56 151.257 165.469 153.219C164.38 155.18 162.482 156.202 161.219 155.5C159.954 154.798 159.815 152.616 160.906 150.656C161.723 149.185 162.973 148.239 164.094 148.156ZM51.9375 148.188C53.3759 148.036 54.7627 149.707 55 151.938C55.2358 154.167 54.2508 156.098 52.8125 156.25C51.3758 156.402 50.0186 154.731 49.7812 152.5C49.5439 150.27 50.5008 148.341 51.9375 148.188ZM169.781 149.969C171.209 150.192 172.096 152.19 171.75 154.406C171.403 156.622 169.96 158.223 168.531 158C167.103 157.777 166.216 155.81 166.562 153.594C166.908 151.378 168.352 149.746 169.781 149.969ZM123.188 150.219C125.092 150.298 125.934 152.738 127.844 153.312C127.85 153.314 127.869 153.312 127.875 153.312C127.88 153.317 127.9 153.311 127.906 153.312C129.792 153.961 131.907 152.486 133.5 153.531C135.094 154.578 134.875 157.071 131.156 158.844C128.621 160.052 127.484 161.916 125.312 161.281C123.178 160.531 123.323 158.367 121.969 155.906C119.982 152.296 121.282 150.141 123.188 150.219ZM119.312 156.188C120.14 156.139 120.846 156.383 121.25 156.938C122.059 158.043 121.312 159.934 119.594 161.188C117.876 162.444 115.839 162.577 115.031 161.469C114.222 160.363 114.969 158.442 116.688 157.188C117.546 156.56 118.485 156.236 119.312 156.188ZM85.75 159.094C86.1178 159.022 86.4777 159.05 86.8125 159.188C88.1498 159.733 88.5373 161.863 87.6875 163.938C86.8376 166.014 85.0889 167.234 83.75 166.688C82.4126 166.138 81.9939 164.014 82.8438 161.938C83.4812 160.381 84.6465 159.308 85.75 159.094ZM132.156 160.094C133.185 160.371 134.221 161.485 134.719 163C135.383 165.021 134.866 167.01 133.562 167.438C132.26 167.866 130.664 166.582 130 164.562C129.336 162.542 129.854 160.553 131.156 160.125C131.482 160.018 131.813 160.001 132.156 160.094ZM78.5312 161.281C79.8991 161.193 81.1449 162.848 81.2812 164.969C81.4159 167.092 80.399 168.88 79.0312 168.969C77.6635 169.057 76.4488 167.404 76.3125 165.281C76.1762 163.159 77.162 161.368 78.5312 161.281ZM121.469 161.812C121.842 161.778 122.181 161.83 122.5 162C123.777 162.676 123.957 164.831 122.906 166.812C121.856 168.795 119.965 169.866 118.688 169.188C117.409 168.51 117.23 166.356 118.281 164.375C119.069 162.889 120.35 161.917 121.469 161.812ZM92.4062 162.875C92.776 162.935 93.1084 163.1 93.375 163.344C94.4413 164.32 94.0762 166.439 92.5625 168.094C91.0472 169.749 88.9429 170.289 87.875 169.312C86.8087 168.338 87.1722 166.217 88.6875 164.562C89.8228 163.321 91.2969 162.696 92.4062 162.875ZM127.188 163.5C128.62 163.696 129.521 165.652 129.219 167.875C128.917 170.097 127.526 171.757 126.094 171.562C124.661 171.367 123.729 169.41 124.031 167.188C124.333 164.965 125.755 163.306 127.188 163.5ZM83.5625 168.875C84.0265 168.888 84.4829 169.022 84.9688 169.312C86.8465 170.573 86.1806 172.654 86.875 175.375C87.8932 179.368 86.0748 181.117 84.25 180.562C82.4252 180.009 82.2358 177.441 80.5312 176.406C80.5249 176.403 80.5048 176.378 80.5 176.375C78.8372 175.275 76.4046 176.194 75.125 174.781C73.8454 173.367 74.6748 170.971 78.7188 170.188C80.7872 169.787 82.1704 168.835 83.5625 168.875ZM93.2812 170.5C94.0946 170.661 94.7474 171.081 95 171.719C95.5051 172.994 94.2896 174.654 92.3125 175.438C90.3354 176.22 88.3176 175.838 87.8125 174.562C87.3074 173.289 88.5229 171.594 90.5 170.812C91.4885 170.42 92.4679 170.339 93.2812 170.5ZM153.438 178.812C154.538 179.041 155.694 180.123 156.312 181.688C157.138 183.771 156.72 185.906 155.375 186.438C154.031 186.97 152.261 185.711 151.438 183.625C150.612 181.539 151.031 179.407 152.375 178.875C152.711 178.742 153.071 178.736 153.438 178.812ZM34.25 180.375C36.1405 180.618 36.773 183.137 38.625 183.875C38.6315 183.879 38.6498 183.872 38.6562 183.875C40.4795 184.684 42.7227 183.383 44.2188 184.562C45.7164 185.743 45.2971 188.242 41.4375 189.688C38.8078 190.672 37.5149 192.415 35.4062 191.594C33.3441 190.663 33.6665 188.505 32.5312 185.938C30.8635 182.169 32.3594 180.131 34.25 180.375ZM160.625 181.094C161.991 181.198 162.975 183.005 162.812 185.125C162.651 187.246 161.398 188.885 160.031 188.781C158.665 188.676 157.682 186.87 157.844 184.75C158.006 182.628 159.257 180.989 160.625 181.094ZM146.75 182.5C147.862 182.334 149.317 182.994 150.438 184.25C151.93 185.922 152.266 188.037 151.188 189C150.109 189.962 148.026 189.392 146.531 187.719C145.037 186.047 144.702 183.901 145.781 182.938C146.051 182.697 146.379 182.555 146.75 182.5ZM29.8438 185.969C30.6726 185.993 31.3643 186.319 31.7188 186.906C32.4291 188.078 31.5388 189.931 29.7188 191.031C27.8988 192.133 25.8354 192.049 25.125 190.875C24.4163 189.703 25.3363 187.881 27.1562 186.781C28.0663 186.23 29.0149 185.945 29.8438 185.969ZM145.781 190.125C146.597 189.974 147.579 190.065 148.562 190.469C150.531 191.277 151.709 192.982 151.188 194.25C150.668 195.519 148.655 195.87 146.688 195.062C144.721 194.256 143.544 192.58 144.062 191.312C144.323 190.679 144.966 190.276 145.781 190.125ZM41.3125 190.938C42.6466 190.623 44.1375 192.055 44.625 194.125C45.1108 196.197 44.4295 198.123 43.0938 198.438C41.7597 198.751 40.2688 197.32 39.7812 195.25C39.2955 193.18 39.9784 191.25 41.3125 190.938ZM31.5 191.781C31.8746 191.779 32.2278 191.867 32.5312 192.062C33.745 192.849 33.7499 195.022 32.5312 196.906C31.3126 198.788 29.3405 199.659 28.125 198.875C26.9112 198.089 26.9063 195.947 28.125 194.062C29.0389 192.651 30.3761 191.789 31.5 191.781ZM175.562 0L187.438 0C188.52-1.64348 188.125-3.10389 186.875-3.65625C185.132-4.42689 183.279-2.57689 181.312-2.90625C181.307-2.90721 181.319-2.93638 181.312-2.9375C181.307-2.9383 181.288-2.9367 181.281-2.9375C179.303-3.18941 178.079-5.45382 176.188-5.21875C174.421-4.99925 173.598-2.90428 175.562 0ZM200 184.094L200 190.969C200.635 190.908 201.39 190.713 202 190.156C203.577 188.72 203.518 186.627 202.375 185.344C201.75 184.642 200.891 184.306 200 184.094ZM37.9375 200L33.7188 200C33.9948 200.959 34.5015 201.7 35.2812 201.875C36.2885 202.102 37.2252 201.222 37.9375 200ZM0 169.25L0 159.125C-0.838912 159.41-1.87105 159.617-2.40625 159.875C-2.50566 161.206-2.42813 163.653-2 165.531C-1.71827 166.764-1.13884 168.3 0 169.25ZM0 130.312L0 125.125C-0.302967 125.196-0.615875 125.296-0.84375 125.5C-1.92129 126.465-1.55856 128.608-0.0625 130.281C-0.0449387 130.301-0.0177213 130.293 0 130.312ZM0 121.312L0 120.781C-0.0147565 119.524-0.608677 118.151-0.78125 116.281C-1.15807 112.178-3.43581 111.116-4.96875 112.25C-6.50166 113.383-5.83345 115.891-7.09375 117.438C-7.09858 117.442-7.12179 117.465-7.125 117.469C-8.32436 119.063-10.9235 119.022-11.6562 120.781C-12.3891 122.542-10.8244 124.492-6.75 123.875C-3.97276 123.455-1.97279 124.37-0.53125 122.625C-0.209928 122.192-0.0665847 121.75 0 121.312ZM0 70.2812L0 59.375C-0.0152909 59.3686-0.0157577 59.3499-0.03125 59.3438C-2.01317 58.5533-3.87542 59.5359-4.53125 61.125C-5.18066 62.6932-4.5428 64.5153-3.96875 65.8125C-3.19105 67.5731-1.78176 69.5852-0.90625 70.5938C-0.684497 70.5503-0.272565 70.3498 0 70.2812ZM0 22.125L0 12.4688C-0.440335 12.0161-0.857445 11.5519-1.46875 11.3438C-3.09629 10.7902-5.06926 11.5193-5.78125 13.5312C-6.35042 15.1379-5.25 16.8125-5.25 16.8125C-5.25 16.8125-7.1863 17.2362-7.90625 18.7812C-8.80902 20.715-7.95519 22.5979-6.40625 23.3438C-4.87652 24.0809-3.01519 23.5605-1.6875 23.0625C-1.07301 22.8319-0.626914 22.4543 0 22.125ZM209.219 62.2812C207.779 62.4031 206.749 64.2961 206.938 66.5312C207.127 68.7666 208.464 70.4969 209.906 70.375C211.347 70.2531 212.345 68.329 212.156 66.0938C211.967 63.8585 210.66 62.1593 209.219 62.2812ZM203.812 67.6875C203.458 67.6721 203.107 67.7306 202.812 67.9062C201.633 68.607 201.569 70.6737 202.656 72.5C203.745 74.328 205.572 75.2336 206.75 74.5312C207.929 73.8304 207.995 71.7968 206.906 69.9688C206.089 68.599 204.877 67.7338 203.812 67.6875ZM-6.03125 124.938C-7.34931 125.313-7.92583 127.266-7.34375 129.312C-6.76003 131.356-5.22432 132.72-3.90625 132.344C-2.58658 131.969-2.01008 129.984-2.59375 127.938C-3.17582 125.891-4.7116 124.561-6.03125 124.938ZM117.219 201.875C115.779 201.748 114.446 203.453 114.25 205.688C114.053 207.921 115.06 209.843 116.5 209.969C117.941 210.096 119.273 208.359 119.469 206.125C119.665 203.89 118.66 202 117.219 201.875ZM109.5 202.562C108.105 202.94 107.444 204.991 108.031 207.156C108.618 209.321 110.23 210.754 111.625 210.375C113.021 209.997 113.681 207.946 113.094 205.781C112.507 203.616 110.896 202.184 109.5 202.562ZM122.625 207.312C121.56 207.355 120.321 208.195 119.5 209.562C118.406 211.387 118.45 213.419 119.625 214.125C120.801 214.83 122.656 213.948 123.75 212.125C124.844 210.3 124.77 208.236 123.594 207.531C123.3 207.355 122.98 207.298 122.625 207.312ZM105.125 208.844C104.773 208.892 104.477 209.024 104.219 209.25C103.186 210.151 103.476 212.179 104.875 213.781C106.273 215.385 108.248 215.964 109.281 215.062C110.314 214.161 110.023 212.135 108.625 210.531C107.577 209.331 106.181 208.698 105.125 208.844Z"
    fill="#A6C8FF" opacity="0.15" />
    <path
        d="M75.6792 99.9998C75.6792 86.5679 86.5679 75.6792 99.9998 75.6792C113.432 75.6792 124.321 86.5679 124.321 99.9998C124.321 113.432 113.432 124.321 99.9998 124.321C86.5679 124.321 75.6792 113.432 75.6792 99.9998Z"
        fill="none" opacity="1" stroke="#000000" stroke-opacity="0.15" stroke-width="2" />
</svg>
