<svg width="24" height="24" viewBox="0 0 24 24" xmlns="http://www.w3.org/2000/svg">
    <path
        d="M11.05 13.95L4.65 11.35C4.46667 11.2667 4.31267 11.1417 4.188 10.975C4.06267 10.8083 4 10.6167 4 10.4C4 10.1833 4.05833 9.99167 4.175 9.825C4.29167 9.65833 4.45 9.53333 4.65 9.45L19.95 3.775C20.15 3.69167 20.3417 3.675 20.525 3.725C20.7083 3.775 20.8667 3.86667 21 4C21.1333 4.13333 21.225 4.29167 21.275 4.475C21.325 4.65833 21.3083 4.85 21.225 5.05L15.55 20.35C15.4667 20.5667 15.3377 20.729 15.163 20.837C14.9877 20.9457 14.8083 21 14.625 21C14.4417 21 14.2583 20.9457 14.075 20.837C13.8917 20.729 13.75 20.5667 13.65 20.35L11.05 13.95ZM14.55 17.3L18.6 6.4L7.7 10.45L12.6 12.4L14.55 17.3Z"
        fill="#1C1B1F" />
</svg>
